<svg xmlns="http://www.w3.org/2000/svg" width="573" height="477" viewBox="0 0 573 477">
    <defs>
        <linearGradient id="kjvzeav69a" x1="50%" x2="50%" y1="0%" y2="100%">
            <stop offset="16%" stop-color="#7383BC"/>
            <stop offset="100%" stop-color="#E28575"/>
        </linearGradient>
        <linearGradient id="0brwxokazb" x1="100%" x2="0%" y1="49.996%" y2="49.996%">
            <stop offset="16%" stop-color="#7383BC"/>
            <stop offset="100%" stop-color="#E28575"/>
        </linearGradient>
    </defs>
    <g fill="none" fill-rule="evenodd">
        <g>
            <g transform="translate(-434 -358) translate(435 359)">
                <circle cx="308.217" cy="275.135" r="174.623" fill="url(#kjvzeav69a)" fill-rule="nonzero"/>
                <g stroke="#4F509B" stroke-width="1.98" transform="translate(156.717 178.755)">
                    <circle cx="128.612" cy="37.208" r="37.061" fill="#E28575" fill-rule="nonzero"/>
                    <path fill="#D4D9EB" fill-rule="nonzero" d="M.306 93.837c-.334-6.976 3.98-7.438 3.98-7.438 1.224-5.51 7.04-6.122 7.04-6.122-.613-11.937 12.243-15.304 12.243-15.304 7.652-9.489 19.59-7.346 19.59-7.346s1.53-27.548 23.568-29.4c22.038-1.851 30.03 13.848 30.03 13.848 14.723 0 17.8 12.27 17.8 12.27 20.253-.82 32.138 15.544 32.138 15.544 37.676-1.096 40.367 20.62 40.78 22.001.413 1.38 5.905 11.365-32.638 3.738 0 0-31.245 9.253-55.193 0 0 0-7.071 4.462-21.898 0 0 0-19.614 10.85-38.775 0 .037-.013-38.359 4.542-38.665-1.79z"/>
                    <path d="M39.008 95.615s5.815-1.646 6.428-5.51M43.18 57.615s5.49 2.216 6.22 8.996M146.732 69.877s-5.862.122-6.085 3.997M154.88 95.615s-4.52-1.163-5.73-4.31M96.788 42.062s3.979 5.902 1.744 13.937M298.242 228.078s-4.255-1.096-5.396-4.06"/>
                    <path fill="#D4D9EB" fill-rule="nonzero" d="M178.65 224.741c-.21-4.432 2.529-4.723 2.529-4.723.777-3.501 4.472-3.89 4.472-3.89-.389-7.585 7.778-9.724 7.778-9.724 4.863-6.03 12.448-4.668 12.448-4.668s.97-17.502 14.974-18.672c14.003-1.169 19.07 8.791 19.07 8.791 9.353 0 11.306 7.793 11.306 7.793 12.856-.517 20.413 9.872 20.413 9.872 23.927-.695 25.638 13.097 25.898 13.972.26.876 3.75 7.218-20.725 2.376 0 0-19.847 5.877-35.053 0 0 0-4.494 2.834-13.909 0 0 0-12.455 6.89-24.622 0 .013.003-24.389 2.895-24.578-1.127z"/>
                    <path d="M203.242 225.87s3.7-1.046 4.074-3.507M205.877 201.736c2.235 1.071 3.737 3.245 3.949 5.714M271.64 209.523s-3.722.08-3.863 2.54M239.92 191.858c1.566 2.675 1.968 5.874 1.111 8.852"/>
                </g>
                <circle cx="308.217" cy="275.135" r="174.623" stroke="#4F509B" stroke-width="1.98"/>
                <path fill="#7181BA" fill-rule="nonzero" stroke="#4F509B" stroke-width="1.98" d="M202.339 440.376s8.46 2.143 8.166 10.87c-.294 8.726-15.222 21.857-45.34 23.189-30.12 1.331-53.137-3.242-61.567-18.304 0 0-1.5-6.805 7.215-12.785"/>
                <path fill="url(#0brwxokazb)" fill-rule="nonzero" stroke="#4F509B" stroke-width=".5" d="M192.51 430.97s7.827 6.53 9.829 9.406c0 0-5.8 20.184-50.278 18.751 0 0-34.612 1.255-41.248-15.781 0 0 8.13-8.5 12.672-11.246"/>
                <path fill="#7181BA" fill-rule="nonzero" stroke="#4F509B" stroke-width="1.98" d="M192.51 430.97s7.827 6.53 9.829 9.406c0 0-5.8 20.184-50.278 18.751 0 0-34.612 1.255-41.248-15.781 0 0 8.13-8.5 12.672-11.246"/>
                <path fill="#7181BA" fill-rule="nonzero" stroke="#4F509B" stroke-width="1.98" d="M96.558 333.424c-5.029 1.588-15.093 8.683-19.458 13.446-4.365 4.763-8.478 8.953-4.05 30.214 4.43 21.26 13.098 29.647 13.098 29.647 9.777 11.408 41.824 36.936 80.118 29.874 38.295-7.06 45.353-11.937 67.897-19.825 22.543-7.888 68.71-32.32 88.535-43.183 19.826-10.863 39.923-17.652 54.318-20.097 14.396-2.446 12.223-13.036 12.223-13.036s-.708-2.345-6.7-2c-5.994.347-19.59-.917-29.973-6.8 0 0-4.034-.69-19.941 2.191-15.908 2.88-53.532 14.659-74.38 15.277-20.847.618-29.736-6.195-37.376-9.911-7.64-3.716-9.706-5.369-12.803-5.369"/>
                <path fill="#7181BA" fill-rule="nonzero" stroke="#4F509B" stroke-width="1.98" d="M22.256 363.778c12.491 5.623 27.826 10.75 38.37 15.895l.181.09s-8.044 11.193 1.25 19.258c9.292 8.065 17.99-1.377 17.99-1.377s-8.453-17.616-8.594-34.692c0 0-2.997-9.207 9.247-19.32 0 0-.585-21.087-12.158-28.61-11.573-7.524-41.903-7.524-59.261 2.819-17.359 10.342-8.057 36.47 12.975 45.937zm8.766-34.364c.7 0 20.404 1.904 34.713 35.068 0 0-28.402-13.853-34.713-23.673-6.312-9.819-.701-11.395 0-11.395h0z"/>
                <path stroke="#4F509B" stroke-width="1.98" d="M31.022 329.414s-15.43-2.773-11.748 14.218c3.683 16.99 38.521 22.613 46.461 29.439 0 0 5.816 3.673 8.614 9.461"/>
                <path stroke="#4F509B" stroke-width="1.98" d="M73.816 350.901s-4.94-28.215-14.793-32.013c-9.853-3.799-32.577-9.514-54.043 2.366M387.506 340.98s-16.418 1.225-22.219 0c-5.8-1.223-8.163-2.322-10.952-5.307"/>
                <path fill="#7181BA" fill-rule="nonzero" stroke="#4F509B" stroke-width="1.98" d="M206.52 328.085s-1.328 15.256-53.005 12.284c-51.677-2.972-56.55-12.284-56.55-12.284l.646-1.643c2.562-6.327 10.857-11.42 10.857-11.42 50.094 10.853 87.045 0 87.045 0 7.983 4.692 11.325 13.676 11.325 13.676"/>
                <path fill="#7181BA" fill-rule="nonzero" stroke="#4F509B" stroke-width="1.98" d="M206.52 328.085s1.683 3.998.918 6.97c0 0-7.285 12.069-51.585 11.745-44.3-.325-54.024-8.038-59.16-13.634 0 0-.744-3.44.918-6.733 0 0 7.934 12.243 56.856 12.965 48.922.723 52.053-11.313 52.053-11.313zM141.694 296.096c-24.206 6.162-33.226 18.926-33.226 18.926 51.992 16.452 81.395 2.347 87.045 0 0 0-14.386-14.108-33.164-17.922"/>
                <path fill="#7181BA" fill-rule="nonzero" stroke="#4F509B" stroke-width="1.98" d="M141.694 285.545v12.167c10.906 5.553 20.306 0 20.306 0V286.24"/>
                <circle cx="152.217" cy="273.859" r="15.858" fill="#7181BA" fill-rule="nonzero" stroke="#4F509B" stroke-width="1.98"/>
                <path stroke="#4F509B" stroke-width="1.98" d="M97.682 326.66s7.93 12.218 56.855 12.662c49.21.444 52.243-11.261 52.053-11.02"/>
                <path stroke="#4F509B" stroke-width="1.98" d="M207.509 335.275s-7.285 11.76-51.585 11.439c-44.3-.322-54.025-7.732-59.16-13.327M202.461 440.376s-5.815 20.184-50.275 18.751c0 0-34.612 1.255-41.248-15.781"/>
                <path fill="#D4D9EB" fill-rule="nonzero" stroke="#4F509B" stroke-width="1.584" d="M366.25 179.25c4.48 0 67.523-24.707 22.344-31.337-30.44-4.47-109.974 7.811-128.605-12.02-18.632-19.832-31.668-80.063 11.42-111.78 57.884-42.607 218.794-16.269 242.13-13.9 49.06 4.977 75.297 92.88 42.124 104.645-37.423 13.282-113.253 14.13-91.949 33.058 26.036 23.14-4.965 24.995-39.663 31.248-21.2 3.823-43.93 17.319-1.203 22.237 50.015 5.755 107.305 47.943 74.52 82.338 0 0-13.452 13.382-49.51 13.728-36.056.346-64.483 12.133-64.483 27.382 0 0-6.936-7.976 6.587-19.764 13.523-11.787 54.79-12.133 70.382-30.856 15.592-18.724 5.448-38.221-16.74-48.974s-88.312-11.356-87.62-31.466c-.71-1.093-.891-10.603 10.266-14.539z"/>
            </g>
        </g>
    </g>
</svg>
